<svg xmlns="http://www.w3.org/2000/svg" width="992" height="512" viewBox="0 0 992 512">
    <rect width="992" height="512" fill="#ffffff"/>
    <text x="496" y="60" text-anchor="middle" font-family="Arial, Helvetica, sans-serif" font-size="54" font-weight="700">MARINARA SAUCE</text>
    <line x1="200" y1="70" x2="792" y2="70" stroke="#000" stroke-width="4"/>

    <rect x="38" y="154" width="104" height="168" rx="8" fill="#f2b84b" stroke="#222" stroke-width="2"/>
    <rect x="46" y="162" width="88" height="36" fill="#e84c3d"/>
    <text x="90" y="187" text-anchor="middle" font-family="Arial, Helvetica, sans-serif" font-size="22" fill="#fff" font-weight="700">Saporito</text>
    <rect x="46" y="206" width="88" height="106" fill="#f5d36b" stroke="#222" stroke-width="1"/>
    <text x="90" y="260" text-anchor="middle" font-family="Arial, Helvetica, sans-serif" font-size="16" fill="#222">Pizza Sauce</text>
    <text x="90" y="344" text-anchor="middle" font-family="Arial, Helvetica, sans-serif" font-size="20">1 CAN OF SAPORITO</text>

    <text x="191" y="250" text-anchor="middle" font-family="Arial, Helvetica, sans-serif" font-size="92" fill="none" stroke="#173d5e" stroke-width="3">+</text>
    <text x="284" y="215" text-anchor="middle" font-family="Arial, Helvetica, sans-serif" font-size="30">1 CAN OF</text>
    <text x="284" y="255" text-anchor="middle" font-family="Arial, Helvetica, sans-serif" font-size="30">WATER</text>

    <text x="432" y="250" text-anchor="middle" font-family="Arial, Helvetica, sans-serif" font-size="92" fill="none" stroke="#173d5e" stroke-width="3">+</text>

    <rect x="502" y="154" width="102" height="116" rx="4" fill="#f2f2f2" stroke="#ccc" stroke-width="2"/>
    <path d="M505 154 L601 154 L590 138 L516 138 Z" fill="#f7f7f7" stroke="#ccc" stroke-width="2"/>
    <text x="553" y="314" text-anchor="middle" font-family="Arial, Helvetica, sans-serif" font-size="22">1 WHOLE BAG OF PIZZA</text>
    <text x="553" y="344" text-anchor="middle" font-family="Arial, Helvetica, sans-serif" font-size="22">SEASONING</text>

    <text x="680" y="250" text-anchor="middle" font-family="Arial, Helvetica, sans-serif" font-size="92" fill="none" stroke="#173d5e" stroke-width="3">=</text>

    <rect x="768" y="150" width="170" height="172" rx="20" fill="#fbfbfb" stroke="#d9d9d9" stroke-width="2"/>
    <path d="M784 170 C818 160, 888 160, 922 170" fill="none" stroke="#d9d9d9" stroke-width="2"/>
    <line x1="862" y1="174" x2="862" y2="310" stroke="#d14343" stroke-width="2"/>
    <line x1="862" y1="215" x2="889" y2="215" stroke="#d14343" stroke-width="2"/>
    <line x1="862" y1="255" x2="889" y2="255" stroke="#d14343" stroke-width="2"/>
    <line x1="862" y1="295" x2="889" y2="295" stroke="#d14343" stroke-width="2"/>
    <text x="893" y="217" font-family="Arial, Helvetica, sans-serif" font-size="15" fill="#d14343">4qt</text>
    <text x="893" y="257" font-family="Arial, Helvetica, sans-serif" font-size="15" fill="#d14343">8qt</text>
    <text x="893" y="197" font-family="Arial, Helvetica, sans-serif" font-size="15" fill="#d14343">10L</text>
    <text x="893" y="160" font-family="Arial, Helvetica, sans-serif" font-size="15" fill="#d14343">12qt</text>
    <text x="853" y="350" text-anchor="middle" font-family="Arial, Helvetica, sans-serif" font-size="18">MIX INTO A 12 QT SAUCE BUCKET</text>
    <text x="853" y="376" text-anchor="middle" font-family="Arial, Helvetica, sans-serif" font-size="18">WITH SPATULA</text>
    <text x="853" y="408" text-anchor="middle" font-family="Arial, Helvetica, sans-serif" font-size="18" font-weight="700">(DO NOT USE THE IMMERSION</text>
    <text x="853" y="434" text-anchor="middle" font-family="Arial, Helvetica, sans-serif" font-size="18" font-weight="700">BLENDER)</text>
</svg>
